<svg class="off__map" viewBox="0 0 100 87.0" role="img" aria-labelledby="off-map-title"><title id="off-map-title">Map of the Middle East, Africa and South Asia. UGCC offices in Kuwait, Saudi Arabia, Oman; project operations in Iraq, India, Malawi.</title><g class="off__map-ctx"><path d="M0.1,87.4 -0.4,86.4 -0.4,85.3 1.5,85.5 2.8,83.9 4.0,83.4 4.2,82.6 5.1,82.2 6.4,82.1 6.4,82.6 7.6,82.7 10.1,83.7 9.9,87.4Z"/><path d="M6.4,82.1 5.1,82.2 4.2,82.6 4.0,83.4 2.8,83.9 1.5,85.5 -0.4,85.3 -0.4,76.5 1.2,76.8 1.7,76.2 2.3,77.2 3.5,77.6 4.4,78.8 5.2,78.7 5.5,78.9 5.5,77.1 5.1,77.5 4.4,77.4 3.5,76.2 3.8,74.7 3.5,72.8 4.2,71.8 6.9,71.3 7.3,71.9 10.4,73.4 11.1,74.8 10.5,75.2 10.5,77.0 10.9,77.4 10.2,77.8 10.1,78.6 9.7,79.2 10.4,79.8 6.1,81.2 6.4,82.1Z"/><path d="M39.3,35.3 38.2,35.8 38.0,36.7 37.1,37.2 33.8,38.2 32.9,39.1 31.9,39.1 30.1,39.9 28.5,40.1 27.6,40.9 26.1,41.2 25.3,41.0 24.5,37.8 24.1,37.4 24.3,35.7 24.9,35.3 25.1,34.1 30.0,34.4 30.6,34.9 32.1,33.1 33.6,32.4 37.6,31.9 39.3,35.3Z"/><path d="M64.9,-0.4 65.8,-0.2 66.5,-0.4 68.3,0.3 66.2,1.2 64.7,1.2 64.3,0.9 64.9,0.4 64.4,-0.1 63.4,0.5 62.8,0.3 62.7,1.2 61.8,1.2 62.3,1.3 61.5,2.1 60.2,2.1 59.9,2.6 61.0,3.0 61.0,3.7 61.4,4.1 60.5,5.6 58.7,5.3 58.8,4.3 57.4,4.0 53.1,1.7 51.7,-0.3 44.7,-0.4 58.9,-0.4 60.8,-0.3 60.9,0.3 61.6,0.6 62.4,-0.4Z"/><path d="M43.9,22.3 44.0,23.2 43.6,23.6 43.5,23.3 43.2,23.4 43.1,24.3 43.5,24.6 42.7,24.7 42.2,26.6 38.5,26.2 37.1,24.5 37.1,24.2 37.5,24.7 40.4,24.5 41.2,24.2 43.6,21.7 43.9,22.3Z"/><path d="M11.5,60.9 7.0,60.9 5.7,61.6 5.2,61.5 5.7,58.3 7.6,56.5 6.9,55.9 7.3,54.0 8.4,53.9 8.9,54.3 10.1,53.8 10.9,54.0 11.6,53.3 12.2,54.2 13.0,57.0 11.5,59.2 11.5,60.9Z"/><path d="M44.7,-0.4 51.7,-0.3 53.1,1.7 57.4,4.0 58.8,4.4 58.7,5.3 57.6,5.0 57.3,5.4 56.3,5.6 55.8,6.8 53.8,7.5 53.7,8.1 52.6,8.5 51.1,7.8 50.9,6.3 49.8,6.3 48.3,5.1 46.8,4.8 45.2,4.0 42.6,4.3 41.6,5.1 40.5,5.3 40.4,3.0 40.2,2.6 39.4,2.5 39.5,2.0 40.0,2.1 39.8,1.6 39.1,1.5 39.2,1.8 38.7,0.9 39.0,-0.1 40.4,0.5 41.1,0.4 41.6,-0.1 41.2,-0.4 38.8,-0.4 43.0,-0.4Z"/><path d="M24.9,-0.4 25.6,0.3 25.6,1.3 26.7,1.5 27.3,2.0 26.9,1.8 26.7,2.3 26.1,2.4 26.7,3.9 26.4,4.5 26.9,4.8 27.2,5.6 26.5,5.8 26.3,5.4 24.3,5.3 23.7,5.6 23.5,5.4 21.3,5.7 19.4,6.3 17.7,5.9 16.6,6.3 15.4,6.1 15.4,6.9 14.7,7.5 14.2,6.8 14.8,6.3 14.6,5.9 13.6,6.4 12.6,6.1 11.2,7.0 9.8,7.2 7.6,6.1 6.7,6.0 6.4,6.9 5.3,7.0 4.7,6.8 4.3,6.2 2.1,6.2 3.2,5.8 1.8,5.8 2.2,5.6 1.5,4.8 1.8,4.4 0.4,3.9 0.6,3.4 1.0,3.9 1.7,3.7 1.1,3.3 1.5,3.1 1.0,2.5 1.3,2.1 0.2,2.2 0.3,1.5 1.1,0.9 4.4,0.9 4.0,0.7 4.3,0.5 5.6,0.3 4.5,0.1 4.6,-0.3 15.9,-0.4 17.9,0.1 19.5,-0.2 20.5,0.1 21.9,-0.4ZM4.2,-0.4 4.4,-0.3 4.3,-0.0 2.2,0.0 0.3,1.3 1.1,0.5 0.2,0.6 0.6,-0.4Z"/><path d="M10.0,73.1 7.2,71.8 6.1,69.7 5.1,68.6 4.9,65.9 5.7,65.7 7.0,64.1 6.4,63.5 7.1,62.6 6.6,61.0 11.6,60.9 16.9,63.9 16.8,64.5 19.2,66.3 18.6,68.3 19.6,69.6 19.3,70.4 19.3,71.7 19.9,74.0 21.0,74.6 20.3,75.1 18.1,76.0 17.3,75.8 16.5,76.4 14.9,76.4 14.4,76.1 13.0,76.2 12.5,75.5 12.1,73.6 11.6,73.2 11.4,73.5 10.0,73.1Z"/><path d="M60.5,5.6 61.4,4.0 61.0,3.7 61.1,3.0 59.9,2.6 60.0,2.2 61.5,2.1 62.3,1.3 61.8,1.2 62.7,1.2 62.8,0.3 63.4,0.5 64.4,-0.1 64.9,0.4 64.3,0.9 65.1,1.2 64.5,1.5 63.7,1.2 63.1,1.3 62.7,1.6 62.8,2.1 64.5,2.0 64.9,2.3 65.9,2.0 67.0,2.6 69.0,2.2 69.3,3.5 70.7,3.7 70.9,4.9 71.2,5.2 69.2,5.5 68.7,5.1 66.2,6.2 65.8,5.6 66.1,4.5 65.6,4.5 65.6,3.9 65.0,3.7 64.1,4.5 64.0,5.0 63.0,5.0 62.8,5.6 62.2,5.3 61.0,5.9 60.5,5.6Z"/><path d="M14.3,7.4 14.7,7.5 15.4,6.9 15.4,6.1 16.6,6.3 17.7,5.9 19.4,6.3 21.3,5.7 23.5,5.4 23.7,5.6 22.2,6.7 22.3,7.8 21.7,9.5 15.7,12.6 14.2,12.0 14.4,10.5 15.0,10.4 15.3,9.8 15.0,9.2 14.5,9.2 14.3,7.4Z"/><path d="M11.6,53.3 10.9,54.0 10.1,53.8 8.9,54.3 8.4,53.9 7.5,54.0 7.0,54.4 5.1,52.7 3.4,53.2 2.7,52.8 1.7,51.2 0.7,50.6 0.5,49.8 -0.4,49.1 -0.4,44.4 1.0,45.7 2.7,45.5 3.0,45.9 4.1,45.9 5.8,44.5 6.9,45.3 7.5,45.3 9.3,43.4 8.8,42.0 10.4,41.7 10.3,43.9 11.5,44.7 11.7,46.9 11.5,47.2 10.6,47.2 10.1,48.0 11.5,48.6 12.6,49.8 13.4,51.5 11.6,53.3Z"/><path d="M11.7,45.7 11.4,45.7 11.5,44.7 10.3,43.9 10.4,41.7 8.8,42.0 9.3,43.4 7.5,45.3 6.9,45.3 5.8,44.5 4.1,45.9 3.0,45.9 2.7,45.5 1.0,45.7 -0.4,44.4 -0.4,27.6 7.5,27.6 7.8,27.3 7.9,27.6 15.8,27.6 16.3,28.8 16.2,30.3 16.6,32.2 18.3,33.3 16.5,34.7 16.0,34.7 15.1,37.5 15.3,38.8 14.7,41.0 14.0,41.1 13.2,42.3 12.9,43.7 12.1,44.0 11.7,45.7Z"/><path d="M78.2,45.2 79.3,45.9 81.0,48.9 80.6,50.1 79.3,50.8 78.4,50.5 78.1,49.5 77.8,47.6 78.4,45.6 78.9,45.7 78.2,45.2Z"/><path d="M22.5,61.9 21.7,60.7 21.7,55.3 23.2,53.4 24.3,53.2 25.5,52.4 27.5,52.3 31.9,47.9 33.2,45.7 33.2,43.1 34.9,42.7 35.9,42.1 36.6,42.3 36.3,44.3 36.8,44.4 36.1,44.5 36.0,45.8 31.8,52.9 29.1,55.9 25.3,58.5 22.5,61.9Z"/><path d="M33.2,43.1 33.2,45.7 31.9,47.9 30.4,47.9 26.1,46.4 25.2,45.7 24.1,44.1 25.0,42.8 26.6,44.3 28.7,43.7 29.8,43.9 31.0,43.2 33.2,43.1Z"/><path d="M5.2,61.5 5.7,61.6 6.5,61.0 7.0,61.7 7.0,62.8 5.7,62.8 5.4,63.5 4.2,63.3 4.6,62.1 5.2,61.5Z"/><path d="M36.6,23.8 36.0,23.7 35.9,22.6 36.6,21.5 37.0,21.9 37.1,23.1 36.6,23.8Z"/><path d="M73.6,7.7 74.0,8.5 73.3,9.1 72.0,9.4 69.5,9.2 69.4,10.0 69.9,10.2 69.5,10.6 69.8,10.9 69.6,11.3 70.1,11.9 70.5,12.0 70.6,12.3 71.5,12.6 70.4,13.3 70.5,14.4 69.4,15.3 69.3,15.8 68.7,16.0 68.0,17.4 67.2,17.8 66.5,18.9 64.9,19.3 64.4,18.8 63.1,20.1 63.1,20.7 64.0,21.0 63.9,21.9 64.7,22.2 65.3,24.1 63.5,24.4 62.0,24.2 61.9,24.7 61.0,25.0 60.2,24.7 59.7,23.6 59.0,23.4 59.0,22.9 58.4,22.3 58.2,22.5 58.6,22.6 56.0,22.9 55.2,22.6 51.5,22.9 51.9,21.4 53.9,20.8 54.1,20.1 53.3,19.9 53.3,18.5 52.0,18.1 50.5,16.2 52.9,16.8 55.2,16.8 58.3,16.1 58.5,14.8 59.2,14.1 60.1,14.2 61.1,13.3 62.1,13.6 62.7,13.1 63.0,11.6 64.1,11.2 63.6,10.1 65.3,10.1 65.2,9.4 66.1,8.4 65.5,7.2 66.9,6.2 71.2,5.8 72.3,6.4 72.3,7.2 72.7,7.5 73.3,7.4 73.6,7.7Z"/><path d="M90.0,19.0 89.9,21.1 88.8,21.2 85.8,20.6 84.2,19.6 82.2,19.5 78.3,17.6 79.1,16.0 80.9,15.4 83.5,17.1 84.2,17.1 84.4,17.5 85.7,18.0 85.7,18.4 86.5,18.4 86.9,19.0 87.2,18.7 90.0,19.0Z"/><path d="M9.9,87.4 10.1,83.7 7.6,82.7 6.4,82.6 6.1,81.2 10.4,79.8 11.1,80.6 12.1,80.4 12.4,81.4 12.0,82.5 13.4,84.3 13.3,83.5 13.6,82.9 14.1,82.7 14.3,81.0 13.4,79.6 12.4,78.8 12.1,77.1 12.5,76.3 14.4,76.1 14.9,76.4 16.5,76.4 17.3,75.8 18.1,76.0 19.3,75.6 21.0,74.6 20.9,78.3 21.2,80.5 21.4,80.4 21.5,80.8 21.1,81.9 20.1,83.3 16.3,85.2 15.1,86.7 13.8,87.4Z"/><path d="M34.1,77.5 34.7,78.4 35.5,81.8 35.1,82.6 34.6,81.9 34.3,82.0 34.5,83.4 34.0,84.4 34.0,85.4 33.3,87.4 26.6,87.4 26.0,84.9 26.7,83.0 29.2,82.3 29.6,82.5 29.7,81.9 30.4,81.5 30.6,81.8 30.9,80.9 31.1,81.2 31.8,80.7 31.6,80.3 31.8,79.3 32.3,79.3 33.0,78.7 33.0,77.5 33.6,77.0 34.1,77.5Z"/><path d="M14.5,9.2 15.0,9.2 15.3,9.8 13.8,11.4 13.2,11.5 14.5,9.2Z"/><path d="M65.2,1.1 66.2,1.2 68.3,0.3 66.5,-0.4 65.8,-0.2 64.9,-0.4 75.9,-0.4 75.5,-0.1 73.8,-0.0 72.9,0.9 72.0,1.0 71.8,0.5 70.8,0.7 69.6,1.4 69.3,2.2 67.0,2.6 65.9,2.0 64.9,2.3 64.5,2.0 62.8,2.1 62.7,1.6 63.1,1.3 63.7,1.2 64.5,1.5 65.2,1.1Z"/><path d="M11.5,60.9 11.5,59.2 13.0,56.9 12.2,54.2 11.6,53.3 13.4,51.5 14.1,51.7 14.5,53.0 15.8,53.1 17.5,54.2 19.6,54.4 21.4,53.3 21.9,53.7 23.0,53.7 21.7,55.4 21.7,60.7 22.5,61.9 20.6,63.3 19.4,66.2 17.1,64.8 16.9,63.9 11.5,60.9Z"/><path d="M62.4,-0.4 61.6,0.6 60.9,0.3 60.8,-0.3 58.9,-0.4 42.7,-0.4Z"/><path d="M14.2,12.0 15.7,12.6 18.5,11.1 18.9,12.6 19.3,12.7 15.9,13.8 17.4,15.2 16.6,16.0 15.6,16.1 14.5,17.1 13.0,16.9 13.9,12.1 14.2,12.0Z"/><path d="M14.3,11.0 14.3,11.7 13.8,12.5 13.3,12.3 13.0,12.8 13.0,13.3 13.3,13.4 12.9,14.0 13.7,13.8 12.9,16.7 11.9,14.2 13.2,11.5 14.3,11.0Z"/><path d="M13.8,12.5 13.7,13.8 12.9,14.0 13.3,13.4 13.0,13.3 13.1,12.4 13.8,12.5Z"/><path d="M40.5,5.3 41.6,5.1 42.6,4.3 45.2,4.0 46.8,4.8 48.3,5.1 49.8,6.3 51.0,6.4 51.1,8.0 50.3,9.4 50.6,9.7 50.0,10.0 50.0,10.6 50.6,10.9 50.1,11.4 50.5,13.8 51.7,13.9 51.9,14.6 50.5,16.2 52.0,18.1 53.3,18.5 53.3,19.9 54.1,20.1 53.9,20.8 51.9,21.4 51.6,22.9 45.4,22.1 44.5,20.1 43.6,20.1 41.5,21.0 40.2,20.7 38.4,19.4 37.1,19.0 34.9,15.7 34.1,15.9 33.3,15.2 33.1,15.9 32.5,15.9 31.9,15.3 31.9,14.5 31.4,14.5 31.6,13.3 31.0,12.4 29.1,11.7 29.0,11.0 28.1,10.2 28.3,9.3 29.2,8.5 29.0,7.8 29.4,7.6 28.1,7.2 26.9,4.8 26.4,4.5 26.7,3.9 26.1,2.4 26.7,2.3 26.9,1.8 28.2,2.9 29.2,3.1 31.9,1.9 32.4,2.3 32.0,2.6 32.3,2.9 31.9,3.1 33.1,3.7 33.5,4.8 35.0,5.2 36.4,6.2 40.5,6.1 40.5,5.3Z"/><path d="M0.6,-0.4 0.1,0.4 -0.4,0.2 -0.4,-0.4Z"/><path d="M25.3,-0.2 24.9,-0.4 30.0,-0.4 29.6,-0.1 28.6,-0.4 25.3,-0.2Z"/><path d="M13.4,51.5 12.6,49.8 11.5,48.6 10.2,47.9 10.6,47.2 11.7,47.0 12.0,44.2 12.4,43.7 12.9,43.7 13.2,42.3 14.0,41.1 14.6,41.0 15.3,38.8 16.3,38.5 16.8,38.9 17.2,37.9 18.0,38.5 18.9,38.2 21.5,39.0 23.7,41.4 22.9,42.5 22.9,43.5 24.5,43.5 24.1,44.1 24.4,44.7 26.1,46.4 30.4,47.9 31.9,47.9 27.5,52.3 25.5,52.4 23.0,53.7 21.9,53.7 21.4,53.3 19.6,54.4 17.5,54.2 15.8,53.1 14.5,53.0 14.1,51.7 13.4,51.5Z"/><path d="M15.3,38.8 15.1,37.5 16.0,34.7 16.5,34.7 18.3,33.3 20.0,37.5 20.1,37.0 20.6,37.7 22.0,38.3 24.8,41.0 24.2,41.5 23.7,41.4 21.5,39.0 20.5,38.5 18.9,38.2 18.0,38.5 17.2,37.9 16.8,38.9 16.3,38.5 15.3,38.8Z"/><path d="M15.8,27.6 7.9,27.6 7.8,27.3 7.5,27.6 -0.4,27.6 -0.4,13.7 4.5,14.7 7.4,13.6 8.5,13.7 8.9,14.0 8.5,13.8 8.4,14.1 8.8,14.4 9.0,14.1 9.6,14.4 11.9,14.0 12.9,16.7 11.9,19.2 10.5,18.0 9.5,16.0 9.2,16.5 10.0,18.0 10.9,19.0 11.5,20.8 13.3,24.0 14.2,24.7 13.8,25.0 14.1,26.2 15.8,27.6Z"/><path d="M25.0,42.8 24.5,43.5 22.9,43.5 22.9,42.5 23.8,41.3 24.2,41.5 24.8,41.0 25.2,41.9 23.9,42.7 25.0,42.8Z"/><path d="M11.6,8.6 9.7,8.5 10.1,8.1 12.4,7.7 11.5,8.3 11.6,8.6Z"/><path d="M9.7,8.5 11.7,8.7 10.1,9.3 9.2,8.8 9.7,8.5Z"/><path d="M6.9,71.3 4.2,71.8 3.5,72.8 3.8,74.7 3.5,76.2 4.4,77.4 5.1,77.5 5.5,77.1 5.5,78.9 5.2,78.7 4.4,78.8 3.5,77.6 2.3,77.2 1.7,76.2 1.2,76.8 -0.4,76.5 -0.4,51.8 2.0,52.0 3.4,53.2 5.1,52.7 7.1,54.4 6.9,55.9 7.6,56.5 5.7,58.3 5.2,61.5 4.1,63.0 4.7,63.9 5.1,68.6 6.1,69.7 6.9,71.3Z"/><path d="M100.4,-0.4 100.4,17.3 99.5,16.9 97.5,17.9 96.6,18.9 95.6,19.2 92.6,18.4 91.1,19.8 91.0,18.8 88.8,19.1 87.2,18.7 86.9,19.0 86.5,18.4 85.7,18.4 85.7,18.0 84.4,17.5 84.2,17.1 83.5,17.1 81.2,15.5 80.3,15.5 79.9,15.9 77.0,13.9 76.5,14.1 76.4,13.1 75.9,12.3 77.1,12.3 76.4,10.1 76.8,9.7 75.8,9.2 75.4,8.0 72.7,7.5 72.3,7.2 72.2,6.3 70.1,5.6 71.2,5.2 70.9,4.9 70.8,3.8 69.3,3.5 69.0,2.6 69.6,1.4 70.8,0.8 71.8,0.5 72.0,1.0 72.9,0.9 73.8,-0.0 75.5,-0.1 75.9,-0.4Z"/><path d="M-0.4,49.1 0.5,49.8 0.7,50.6 1.7,51.2 2.0,52.0 -0.4,51.8Z"/><path d="M100.4,36.3 99.9,36.5 99.8,36.0 99.5,36.4 99.6,35.5 98.9,36.2 99.4,34.0 98.6,31.5 98.4,32.0 97.8,31.4 98.3,31.6 98.5,31.3 98.0,30.8 98.1,30.6 97.5,30.3 97.3,30.7 97.2,29.9 96.8,30.1 96.9,29.8 96.7,29.6 96.7,30.0 96.2,29.4 95.9,28.6 96.1,28.4 96.5,28.6 96.5,27.6 97.3,27.2 97.6,24.6 98.7,24.8 100.4,20.8Z"/><path d="M6.6,62.9 6.4,63.6 6.9,63.8 6.9,64.2 5.7,65.7 4.9,65.9 4.4,63.2 5.4,63.5 5.7,62.8 6.6,62.9Z"/><path d="M95.1,19.2 95.1,19.5 95.8,19.9 95.6,20.5 92.4,20.7 91.4,20.5 90.9,20.0 92.0,18.8 92.7,18.4 93.3,18.7 94.6,18.7 95.1,19.2Z"/><path d="M91.4,27.4 91.2,25.8 90.7,25.1 90.9,24.3 89.9,23.7 90.5,22.9 91.2,22.8 90.0,21.9 90.5,20.9 91.1,21.4 91.3,21.2 91.8,21.7 92.3,21.4 92.5,22.8 95.7,23.0 96.4,23.3 96.0,23.4 95.5,24.4 94.7,24.5 94.4,25.1 94.7,25.9 95.1,26.1 95.6,25.1 96.0,25.1 96.6,28.6 96.0,28.5 96.1,29.3 95.5,27.0 94.9,26.3 94.1,26.7 93.6,25.2 93.1,25.4 93.6,25.7 93.4,26.5 93.6,27.0 93.1,27.8 92.9,27.7 93.1,27.3 92.6,27.4 92.7,26.9 92.1,27.9 92.0,27.2 91.8,28.0 91.4,27.4Z"/><path d="M27.3,2.0 28.7,2.1 29.2,3.1 28.2,2.9 27.3,2.0ZM33.1,3.7 31.9,3.1 32.3,2.9 32.0,2.6 32.4,2.3 31.9,1.9 29.7,3.0 29.7,2.1 28.4,1.5 28.9,1.1 28.2,0.7 28.4,0.2 27.5,-0.4 29.6,-0.1 30.0,-0.4 33.5,-0.4 34.1,0.4 35.1,0.8 35.3,1.0 34.0,1.3 33.9,2.4 33.1,3.1 33.1,3.7Z"/><path d="M27.2,1.9 25.6,1.3 25.7,0.4 25.3,-0.2 27.5,-0.4 28.4,0.2 28.1,0.5 28.9,1.2 28.4,1.5 29.7,2.1 29.7,3.0 29.2,3.1 28.6,2.1 27.2,1.9Z"/><path d="M58.7,5.3 60.4,5.5 61.0,5.9 62.2,5.3 62.8,5.6 63.0,5.0 64.0,5.0 64.1,4.5 65.0,3.7 65.6,3.9 65.6,4.5 66.1,4.5 65.8,5.6 66.2,6.2 68.7,5.1 69.2,5.2 69.1,5.5 70.1,5.2 70.9,5.5 70.1,5.6 70.3,5.8 69.6,6.1 67.0,6.2 65.6,7.1 66.1,8.4 65.2,9.4 65.3,10.1 63.6,10.1 64.1,11.2 63.0,11.6 62.7,13.1 62.1,13.6 61.1,13.3 60.1,14.2 59.2,14.1 58.5,14.8 58.2,16.2 55.2,16.8 52.9,16.8 50.5,16.2 51.9,14.6 51.7,13.9 50.5,13.8 50.1,11.5 50.6,10.9 50.0,10.7 50.0,10.0 50.6,9.7 50.3,9.4 50.8,8.9 51.1,7.8 52.6,8.5 53.2,8.3 53.7,8.1 53.8,7.5 55.8,6.8 56.3,5.6 57.3,5.4 57.6,5.0 58.7,5.3Z"/><path d="M74.0,8.5 73.6,7.7 75.1,8.0 74.0,8.5Z"/></g><g class="off__map-op"><path d="M23.71,5.64 23.85,5.61 24.31,5.26 24.55,5.33 24.77,5.27 25.62,5.47 25.85,5.48 26.11,5.35 26.25,5.36 26.36,5.44 26.38,5.72 26.50,5.83 26.97,5.54 27.15,5.56 27.36,6.09 27.56,6.24 27.61,6.57 27.89,6.73 28.06,7.23 28.35,7.28 28.66,7.51 29.23,7.51 29.38,7.58 29.04,7.72 28.98,7.82 28.95,8.01 29.15,8.23 29.21,8.41 29.18,8.51 28.87,8.66 28.52,8.99 28.46,9.32 28.26,9.31 28.17,9.55 28.32,9.84 28.11,10.19 28.22,10.26 28.61,10.73 28.81,10.72 28.80,10.89 28.96,10.92 29.01,11.00 29.20,11.27 29.10,11.47 29.15,11.66 29.53,11.70 30.61,12.37 30.85,12.36 30.97,12.44 31.18,12.83 31.64,13.35 31.42,13.92 31.42,14.50 31.90,14.51 31.91,15.27 32.36,15.54 32.47,15.68 32.51,15.90 32.68,16.00 32.40,16.01 32.09,15.89 31.86,15.93 31.85,15.97 31.41,15.81 30.91,15.83 30.76,15.89 30.60,16.01 30.30,16.62 30.10,16.90 29.76,17.26 29.50,17.31 27.13,17.12 23.30,14.38 20.83,13.14 19.05,12.87 19.26,12.70 19.20,12.54 18.90,12.61 18.81,12.36 18.92,12.33 18.51,11.06 21.29,9.67 21.65,9.59 21.72,9.53 22.02,9.03 22.05,8.28 22.25,7.77 22.25,7.53 22.10,7.14 22.17,6.69 22.34,6.50 22.88,6.38 23.70,5.71 23.71,5.64Z"/><path d="M61.11,24.86 61.42,24.72 61.92,24.70 61.92,24.26 62.00,24.20 62.07,24.27 62.18,24.23 63.13,24.25 63.36,24.40 63.49,24.41 63.80,24.37 63.91,24.23 64.48,24.05 64.56,24.04 64.61,24.25 64.81,24.30 65.28,24.07 65.18,23.94 65.17,23.82 65.29,23.65 65.04,23.11 64.71,22.59 64.71,22.23 64.59,22.18 64.42,22.21 64.15,22.18 63.91,21.88 63.88,21.65 63.96,21.44 63.98,21.02 63.85,20.91 63.39,20.84 63.05,20.67 63.00,20.58 63.10,20.12 63.62,19.61 63.98,19.07 64.35,18.81 64.48,18.82 64.68,18.94 64.77,19.18 64.92,19.27 65.49,19.09 66.00,19.04 66.48,18.90 66.59,18.59 66.85,18.35 67.16,17.76 67.98,17.36 68.45,16.60 68.67,16.05 69.29,15.81 69.47,15.63 69.40,15.44 69.42,15.32 70.06,14.65 70.48,14.45 70.45,14.34 70.35,14.31 70.32,14.23 70.43,13.83 70.30,13.47 70.37,13.31 70.64,13.12 71.38,12.85 71.49,12.74 71.50,12.65 71.35,12.51 71.00,12.38 70.71,12.39 70.56,12.33 70.50,12.17 70.53,11.95 70.08,11.94 70.01,11.87 70.04,11.80 70.01,11.61 69.75,11.49 69.57,11.33 69.56,11.25 69.74,11.04 69.78,10.86 69.57,10.68 69.53,10.55 69.57,10.46 69.88,10.31 69.93,10.23 69.92,10.16 69.49,10.12 69.43,10.04 69.54,9.87 69.53,9.81 69.29,9.68 69.27,9.60 69.51,9.20 70.00,9.04 70.94,9.21 71.29,9.22 71.67,9.37 72.04,9.42 72.52,9.18 72.71,9.18 73.13,9.05 73.33,9.08 73.47,9.01 73.60,8.84 73.91,8.71 73.98,8.54 75.07,7.98 75.21,8.05 75.42,8.00 75.38,8.34 75.84,9.27 76.33,9.40 76.77,9.71 76.77,9.82 76.45,10.02 76.42,10.13 76.50,10.43 76.52,10.88 77.01,11.35 76.96,11.52 77.10,11.68 77.13,12.32 77.00,12.36 76.91,12.49 76.69,12.53 76.48,12.37 76.38,12.18 75.96,12.24 75.93,12.30 76.08,12.74 76.43,13.11 76.37,13.43 76.53,13.60 76.42,13.82 76.46,13.87 76.44,14.03 76.51,14.07 76.77,14.02 76.83,13.90 76.97,13.92 77.30,14.35 77.53,14.51 77.63,14.57 77.96,14.55 78.38,14.82 78.48,14.80 78.54,14.85 78.54,15.13 79.25,15.35 79.69,15.61 79.73,15.71 79.49,15.75 79.06,16.10 78.84,16.34 78.63,16.79 78.60,17.12 78.45,17.25 78.38,17.41 78.36,17.65 78.87,17.96 78.96,17.97 79.01,17.89 79.11,17.91 79.95,18.36 80.16,18.59 80.95,19.04 81.14,18.98 81.81,19.33 82.14,19.32 82.22,19.55 83.03,19.76 83.26,19.63 83.81,19.75 83.91,19.67 84.19,19.59 84.94,19.87 85.05,20.24 85.69,20.50 85.86,20.66 86.33,20.53 86.52,20.62 86.58,20.82 86.66,20.87 86.97,20.81 87.49,20.92 87.97,21.12 88.43,20.94 88.54,21.12 88.82,21.23 89.01,21.14 89.32,21.17 89.64,21.12 89.85,21.20 89.93,21.13 90.09,20.70 90.02,20.40 89.83,20.11 89.89,19.71 90.07,19.21 90.01,18.95 90.76,18.72 91.02,18.84 91.09,19.04 90.94,19.54 90.96,19.68 91.15,19.84 90.93,20.05 91.07,20.20 91.10,20.36 91.52,20.57 91.79,20.52 92.15,20.62 92.19,20.71 92.41,20.73 92.93,20.66 93.05,20.52 93.25,20.46 93.57,20.59 93.83,20.63 94.62,20.60 94.82,20.49 94.95,20.58 95.18,20.59 95.72,20.48 95.75,20.34 95.64,20.16 95.77,19.88 95.64,19.65 95.28,19.66 95.06,19.49 95.04,19.41 95.12,19.20 95.62,19.24 95.80,19.13 96.02,19.08 96.25,19.10 96.44,19.03 96.65,18.87 96.58,18.76 96.67,18.64 97.15,18.37 97.27,18.27 97.47,17.94 98.20,17.79 98.51,17.60 98.58,17.46 98.71,17.43 98.98,17.19 99.45,16.95 99.61,17.04 99.67,17.14 100.00,17.18 100.40,17.33 100.40,20.79 100.19,20.88 100.09,21.06 100.10,21.47 100.19,21.69 100.02,21.88 99.92,22.18 99.69,22.45 99.52,22.53 99.39,22.74 99.35,22.89 99.53,23.00 99.58,23.13 99.40,23.54 98.98,24.18 98.74,24.83 98.09,24.64 97.82,24.69 97.57,24.56 97.55,24.62 97.70,25.11 97.63,25.91 97.55,26.06 97.34,26.05 97.32,26.10 97.34,26.23 97.22,26.51 97.34,27.03 97.32,27.22 97.16,27.28 97.05,27.54 96.89,27.54 96.77,27.40 96.65,27.36 96.57,27.53 96.49,27.58 96.36,26.56 96.18,26.20 96.14,25.63 96.01,25.11 95.92,25.12 95.87,25.05 95.72,25.12 95.55,25.11 95.56,25.37 95.30,25.68 95.29,26.02 95.10,26.13 94.94,26.05 94.84,25.81 94.74,25.81 94.74,25.99 94.66,25.95 94.44,25.26 94.54,24.77 94.73,24.51 94.97,24.52 95.26,24.35 95.47,24.37 95.58,24.13 95.80,24.06 95.98,23.53 95.98,23.37 96.29,23.42 96.36,23.34 96.33,23.28 95.72,22.95 93.39,22.97 92.51,22.78 92.46,22.66 92.50,21.83 92.28,21.44 92.15,21.48 92.16,21.65 92.10,21.74 91.84,21.74 91.57,21.60 91.46,21.46 91.40,21.20 91.33,21.16 91.23,21.15 91.19,21.21 91.26,21.39 91.06,21.38 90.84,21.33 90.75,21.13 90.46,20.92 90.39,20.93 90.36,21.05 90.49,21.12 90.49,21.21 90.07,21.62 89.98,21.91 90.07,22.02 90.22,22.05 90.38,22.19 90.58,22.42 90.72,22.48 90.97,22.49 91.04,22.67 91.23,22.82 91.04,22.94 90.52,22.93 90.31,23.37 90.07,23.32 89.89,23.74 90.07,23.95 90.27,23.95 90.43,24.09 90.90,24.25 90.87,24.65 90.68,25.12 90.93,25.47 90.90,25.73 91.20,25.83 91.09,26.04 91.19,26.63 91.38,27.15 91.34,27.64 91.23,27.64 91.33,27.79 91.38,28.05 91.17,28.05 91.10,27.92 91.06,28.04 90.93,28.15 90.86,27.94 90.93,27.54 90.78,27.37 90.68,27.79 90.70,28.04 90.50,28.11 90.27,27.90 90.22,28.10 90.03,28.08 89.94,27.99 90.14,27.35 89.85,27.16 89.77,27.01 89.80,27.18 90.09,27.37 89.78,27.80 89.39,28.05 88.55,28.27 88.20,28.66 88.18,28.85 88.37,29.43 88.06,29.84 88.04,30.00 87.68,30.20 87.50,30.44 87.31,30.37 87.41,30.47 87.36,30.57 87.27,30.60 86.34,30.90 86.23,30.89 86.32,30.81 86.31,30.64 86.24,30.61 86.17,30.60 85.87,30.80 85.74,31.00 85.77,31.04 86.04,30.92 86.15,30.99 85.83,31.16 85.18,31.72 85.06,31.95 84.21,32.93 83.56,33.25 82.90,33.92 82.02,34.40 81.68,34.66 81.57,34.89 81.68,35.11 81.53,35.44 80.81,35.77 80.29,35.72 80.12,35.76 79.90,36.31 79.75,36.42 79.68,36.60 79.46,36.59 79.39,36.44 79.20,36.40 78.82,36.55 78.69,36.67 78.41,37.23 78.34,37.59 78.52,38.46 78.42,38.84 78.71,39.90 78.49,39.57 78.35,39.72 78.76,40.08 78.59,41.05 78.47,41.39 78.06,42.07 77.90,42.67 77.96,42.85 77.82,43.05 77.97,43.01 78.04,43.21 78.03,44.48 77.78,44.52 77.58,44.47 77.27,44.58 77.18,44.70 77.19,44.90 76.72,45.58 76.69,45.74 76.84,45.92 77.21,45.99 77.41,46.12 77.12,46.03 76.78,46.01 75.97,46.25 75.64,46.56 75.55,47.11 75.45,47.29 75.03,47.57 74.66,47.74 74.35,47.64 74.01,47.39 73.27,46.54 72.93,45.74 72.82,45.06 72.96,45.20 73.01,45.62 73.13,45.62 72.97,45.06 72.75,44.83 72.76,44.66 72.35,43.81 72.06,42.98 71.77,42.48 71.30,41.97 70.94,41.23 70.68,40.49 70.54,39.63 70.29,39.08 70.12,38.43 69.49,37.59 69.40,37.26 69.28,37.12 69.47,37.12 69.23,36.87 69.32,36.74 69.18,36.75 69.10,36.67 68.81,36.17 68.61,35.58 68.34,33.90 68.11,33.21 68.00,32.51 67.94,32.42 68.12,31.87 68.08,31.68 67.97,31.88 67.88,31.94 67.83,31.79 67.84,31.47 68.10,31.50 67.81,31.37 67.76,31.25 67.83,31.15 67.72,31.06 67.63,30.70 67.69,30.34 67.96,29.47 67.85,28.83 67.67,28.74 67.57,28.46 67.73,28.32 67.56,28.33 67.84,28.10 68.28,27.91 67.88,28.00 67.45,27.99 67.53,27.73 67.68,27.59 67.42,27.58 67.47,27.32 67.84,27.21 67.52,27.15 67.33,27.19 66.93,27.16 67.11,27.28 67.06,27.42 66.72,27.81 66.97,27.94 67.04,28.04 67.03,28.23 66.69,28.77 65.25,29.38 65.04,29.41 64.81,29.38 64.47,29.23 63.82,28.74 63.40,28.27 62.60,27.56 62.33,27.26 62.28,27.13 62.29,26.99 62.39,26.92 62.51,26.95 62.72,27.14 63.11,26.96 63.27,26.96 63.37,26.88 63.51,26.89 63.78,26.76 64.02,26.72 64.41,26.14 64.51,26.10 64.48,25.97 64.40,25.99 64.26,26.19 64.13,26.14 63.94,26.18 63.28,26.45 62.66,26.32 62.05,26.02 61.80,25.82 61.47,25.27 62.00,24.86 61.59,25.02 61.37,25.21 61.21,25.23 61.11,24.86ZM98.39,49.54 98.30,49.66 98.13,49.30 98.06,49.28 98.09,49.03 98.29,48.96 98.45,49.34 98.39,49.54ZM98.16,48.78 98.03,48.92 97.97,48.84 98.11,48.70 98.16,48.78ZM97.31,47.49 97.35,47.54 97.27,47.53 97.19,47.45 97.24,47.34 97.31,47.49ZM97.74,48.03 97.63,48.03 97.55,47.90 97.59,47.84 97.65,47.82 97.74,48.03ZM97.88,47.77 97.79,47.81 97.76,47.60 97.82,47.52 97.87,47.54 97.88,47.77ZM96.79,46.20 96.69,46.16 96.76,46.05 96.83,46.15 96.79,46.20ZM96.38,44.15 96.34,44.19 96.19,44.16 96.16,43.86 96.39,43.65 96.48,43.93 96.38,44.15ZM96.66,42.95 96.52,42.94 96.58,42.76 96.65,42.83 96.66,42.95ZM96.70,42.72 96.67,42.76 96.62,42.72 96.43,42.23 96.53,42.12 96.63,41.77 96.79,41.72 96.78,41.61 96.69,41.53 96.70,41.27 96.75,41.08 96.72,40.92 96.82,40.78 96.86,40.60 96.82,40.54 96.89,40.08 96.99,39.90 97.19,39.81 97.21,40.02 97.12,40.11 97.20,40.28 96.94,40.68 97.05,40.82 97.09,41.27 97.00,41.39 96.90,41.42 96.93,41.72 96.74,42.06 96.81,42.23 96.70,42.72ZM97.13,42.00 97.19,42.20 97.04,42.05 97.13,42.00Z"/><path d="M12.64,77.01 12.55,77.00 12.58,76.86 12.69,76.89 12.64,77.01ZM12.52,76.87 12.50,76.95 12.38,76.88 12.45,76.81 12.52,76.87ZM10.44,79.77 10.36,79.66 10.13,79.78 9.95,79.49 9.80,79.40 9.85,79.30 9.67,79.16 9.93,78.96 10.10,78.63 10.14,78.15 10.07,78.02 10.18,77.76 10.72,77.56 10.89,77.35 10.64,77.30 10.51,77.01 10.59,76.40 10.47,76.18 10.48,76.01 10.53,75.99 10.70,75.63 10.52,75.25 10.64,75.13 10.82,75.09 11.10,74.75 10.95,74.52 10.91,74.29 10.60,74.01 10.65,73.75 10.51,73.60 10.43,73.41 10.14,73.40 10.03,73.09 10.11,73.07 10.33,73.22 10.62,73.25 10.75,73.38 11.16,73.37 11.43,73.47 11.53,73.45 11.52,73.32 11.59,73.22 12.06,73.56 12.35,73.99 12.44,74.71 12.55,74.98 12.48,75.52 12.72,75.90 12.88,75.97 12.98,76.24 12.55,76.25 12.49,76.30 12.40,76.61 12.11,77.09 12.29,77.82 12.41,78.82 12.55,79.01 12.91,79.10 13.40,79.60 14.27,80.72 14.34,81.04 14.21,81.59 14.25,81.81 14.19,82.59 14.07,82.79 13.56,82.88 13.47,83.01 13.29,83.46 13.45,83.82 13.46,84.24 13.22,84.28 13.11,84.12 13.21,83.95 13.16,83.86 12.95,83.75 12.36,83.11 12.20,83.01 12.18,82.77 11.95,82.49 11.95,82.40 12.11,82.22 12.38,81.63 12.40,81.22 12.33,80.62 12.08,80.34 11.07,80.57 10.44,79.77Z"/></g><g class="off__map-hq"><path d="M32.28,16.49 32.14,16.51 32.00,16.24 32.15,15.98 32.39,16.27 32.38,16.39 32.28,16.49ZM32.53,18.06 31.41,18.08 31.28,17.94 31.06,17.42 29.76,17.26 30.30,16.62 30.65,15.95 30.91,15.83 31.53,15.84 31.85,15.97 31.89,16.19 32.09,16.57 31.84,16.51 31.48,16.83 31.96,16.88 32.15,17.43 32.53,18.06Z"/><path d="M15.80,22.64 15.54,22.43 15.26,22.33 15.22,22.26 15.27,22.20 15.35,22.30 15.58,22.39 15.88,22.60 15.80,22.64ZM23.17,35.21 23.28,35.22 23.23,35.15 23.28,35.08 23.44,35.22 23.42,35.42 23.29,35.28 23.14,35.30 23.04,35.26 22.86,35.02 22.98,34.96 23.02,34.88 22.99,34.80 23.07,34.81 23.11,34.89 23.11,35.16 23.17,35.21ZM37.65,31.91 33.39,32.51 32.13,33.12 31.27,34.15 31.08,34.64 30.64,34.88 30.40,34.87 30.04,34.41 29.44,34.46 28.31,34.36 27.75,34.18 26.31,34.22 25.97,34.33 25.67,34.27 25.50,34.12 25.24,34.05 24.91,34.28 24.98,34.41 24.86,34.50 24.81,34.88 24.91,35.07 24.88,35.25 24.35,35.71 24.20,35.18 23.99,34.99 23.98,34.86 23.74,34.62 23.61,34.17 23.26,33.83 22.83,33.52 22.47,32.98 22.36,32.69 22.07,32.37 21.91,31.78 21.39,30.80 21.18,30.71 20.99,30.46 20.41,30.06 20.12,30.03 19.90,29.88 19.55,29.38 19.24,29.04 18.98,28.55 19.06,28.37 19.05,28.25 18.82,27.72 18.98,26.98 18.93,26.69 18.84,26.54 18.85,26.43 18.67,26.27 18.76,26.27 18.55,26.03 18.41,25.66 18.06,25.07 17.81,24.78 17.27,24.38 17.13,24.38 16.98,24.25 16.73,24.23 16.20,23.46 16.33,23.26 16.16,22.78 15.83,22.27 15.60,22.11 15.47,21.69 15.24,21.60 14.85,20.89 14.28,20.20 14.15,19.92 13.89,19.67 13.66,19.24 13.31,18.80 13.16,18.72 12.64,18.66 12.50,18.76 12.49,18.63 12.72,18.11 12.97,16.89 14.59,17.11 15.18,16.68 15.59,16.14 16.62,15.96 16.88,15.47 17.36,15.22 15.88,13.79 18.79,13.06 19.05,12.87 20.83,13.14 23.30,14.38 27.09,17.11 29.50,17.31 29.76,17.26 31.06,17.42 31.28,17.94 31.41,18.08 32.53,18.06 32.79,18.66 33.06,19.00 33.09,19.14 33.04,19.25 33.20,19.39 33.68,19.59 33.59,19.67 33.92,20.04 34.11,20.08 34.37,20.36 34.76,20.55 35.00,20.79 34.79,20.77 34.82,20.99 35.05,21.16 35.09,21.30 35.01,21.60 34.83,21.59 34.90,21.81 35.13,22.30 35.44,22.58 35.59,23.07 36.02,23.66 36.18,23.82 36.62,23.77 36.72,23.83 36.83,23.82 36.68,24.16 37.06,24.24 37.09,24.54 38.49,26.20 42.18,26.65 42.30,26.53 42.96,27.55 42.00,30.46 37.65,31.91Z"/><path d="M47.42,30.13 47.31,30.14 47.31,29.96 47.52,29.73 47.66,29.46 47.75,29.70 47.59,29.84 47.42,30.13ZM39.25,35.31 38.84,34.41 38.74,34.36 37.65,31.91 42.00,30.46 42.96,27.55 42.30,26.53 42.32,26.05 42.77,25.05 42.80,24.91 42.71,24.74 42.82,24.66 43.46,24.56 43.37,24.34 43.13,24.30 43.20,24.14 43.14,23.94 43.19,23.73 43.18,23.39 43.36,23.24 43.48,23.27 43.50,23.33 43.44,23.40 43.57,23.58 44.04,23.23 44.19,23.61 44.41,23.97 44.80,24.43 45.11,24.68 45.81,24.93 46.55,25.06 46.85,25.20 47.21,25.17 47.50,25.35 47.87,25.91 48.45,26.59 48.60,26.71 49.02,26.81 48.99,27.23 48.36,28.28 47.93,28.58 47.67,28.84 47.06,29.86 46.88,29.89 46.68,29.84 46.73,29.58 46.62,29.60 46.53,29.62 46.18,30.10 45.96,30.92 46.10,31.88 45.91,31.96 45.18,32.04 44.68,32.26 44.43,32.50 44.28,33.11 44.03,33.37 42.72,33.58 42.40,33.95 42.37,34.07 42.46,34.25 42.43,34.33 42.12,34.74 41.70,34.85 41.40,34.75 40.68,34.79 40.01,35.15 39.56,35.20 39.25,35.31ZM43.91,22.26 43.84,22.29 43.69,22.20 43.72,21.68 43.59,21.66 43.72,21.45 43.92,21.41 44.03,21.23 44.10,21.28 44.08,21.59 44.02,22.03 43.91,22.26Z"/></g><g class="off__map-pins"><circle class="off__halo" cx="31.9" cy="16.9" r="2.6"/><circle class="off__pin" cx="31.9" cy="16.9" r="0.9"/><text class="off__map-label" x="35.1" y="15.5">Kuwait City</text><circle class="off__halo" cx="30.0" cy="23.6" r="2.6"/><circle class="off__pin" cx="30.0" cy="23.6" r="0.9"/><text class="off__map-label" x="33.2" y="24.6">Riyadh</text><circle class="off__halo" cx="47.0" cy="25.2" r="2.6"/><circle class="off__pin" cx="47.0" cy="25.2" r="0.9"/><text class="off__map-label" x="50.2" y="26.2">Muscat</text></g></svg>
